<svg xmlns="http://www.w3.org/2000/svg" width="1280" height="640" viewBox="0 0 1280 640">
  <defs>
    <linearGradient id="bg" x1="0%" y1="0%" x2="100%" y2="100%">
      <stop offset="0%" style="stop-color:#0a0a0a"/>
      <stop offset="100%" style="stop-color:#1a1a2e"/>
    </linearGradient>
    <linearGradient id="accent" x1="0%" y1="0%" x2="100%" y2="0%">
      <stop offset="0%" style="stop-color:#f59e0b"/>
      <stop offset="100%" style="stop-color:#ef4444"/>
    </linearGradient>
  </defs>

  <!-- Background -->
  <rect width="1280" height="640" fill="url(#bg)"/>

  <!-- Subtle grid pattern -->
  <g opacity="0.05">
    <line x1="0" y1="80" x2="1280" y2="80" stroke="#fff" stroke-width="1"/>
    <line x1="0" y1="160" x2="1280" y2="160" stroke="#fff" stroke-width="1"/>
    <line x1="0" y1="240" x2="1280" y2="240" stroke="#fff" stroke-width="1"/>
    <line x1="0" y1="320" x2="1280" y2="320" stroke="#fff" stroke-width="1"/>
    <line x1="0" y1="400" x2="1280" y2="400" stroke="#fff" stroke-width="1"/>
    <line x1="0" y1="480" x2="1280" y2="480" stroke="#fff" stroke-width="1"/>
    <line x1="0" y1="560" x2="1280" y2="560" stroke="#fff" stroke-width="1"/>
    <line x1="160" y1="0" x2="160" y2="640" stroke="#fff" stroke-width="1"/>
    <line x1="320" y1="0" x2="320" y2="640" stroke="#fff" stroke-width="1"/>
    <line x1="480" y1="0" x2="480" y2="640" stroke="#fff" stroke-width="1"/>
    <line x1="640" y1="0" x2="640" y2="640" stroke="#fff" stroke-width="1"/>
    <line x1="800" y1="0" x2="800" y2="640" stroke="#fff" stroke-width="1"/>
    <line x1="960" y1="0" x2="960" y2="640" stroke="#fff" stroke-width="1"/>
    <line x1="1120" y1="0" x2="1120" y2="640" stroke="#fff" stroke-width="1"/>
  </g>

  <!-- Shield icon -->
  <g transform="translate(540, 120)">
    <path d="M100 0 L200 40 L200 120 C200 180 150 220 100 240 C50 220 0 180 0 120 L0 40 Z"
          fill="none" stroke="url(#accent)" stroke-width="4" opacity="0.9"/>
    <path d="M100 20 L180 52 L180 120 C180 170 140 204 100 220 C60 204 20 170 20 120 L20 52 Z"
          fill="url(#accent)" opacity="0.1"/>
    <!-- Checkmark inside shield -->
    <path d="M65 120 L90 145 L140 95" fill="none" stroke="#f59e0b" stroke-width="8" stroke-linecap="round" stroke-linejoin="round"/>
  </g>

  <!-- Title -->
  <text x="640" y="420" text-anchor="middle" font-family="-apple-system, BlinkMacSystemFont, 'Segoe UI', Helvetica, Arial, sans-serif" font-size="72" font-weight="800" fill="#ffffff" letter-spacing="-2">
    Thundergate
  </text>

  <!-- Subtitle -->
  <text x="640" y="475" text-anchor="middle" font-family="-apple-system, BlinkMacSystemFont, 'Segoe UI', Helvetica, Arial, sans-serif" font-size="26" fill="#a1a1aa" font-weight="400">
    Real-time execution firewall for autonomous AI agents
  </text>

  <!-- Tags -->
  <g transform="translate(640, 520)" text-anchor="middle">
    <rect x="-340" y="-18" width="130" height="36" rx="18" fill="#f59e0b" opacity="0.15"/>
    <text x="-275" y="6" font-family="-apple-system, BlinkMacSystemFont, 'Segoe UI', Helvetica, Arial, sans-serif" font-size="15" fill="#f59e0b" font-weight="600" text-anchor="middle">Rule Engine</text>

    <rect x="-180" y="-18" width="170" height="36" rx="18" fill="#ef4444" opacity="0.15"/>
    <text x="-95" y="6" font-family="-apple-system, BlinkMacSystemFont, 'Segoe UI', Helvetica, Arial, sans-serif" font-size="15" fill="#ef4444" font-weight="600" text-anchor="middle">Human-in-the-Loop</text>

    <rect x="20" y="-18" width="130" height="36" rx="18" fill="#22c55e" opacity="0.15"/>
    <text x="85" y="6" font-family="-apple-system, BlinkMacSystemFont, 'Segoe UI', Helvetica, Arial, sans-serif" font-size="15" fill="#22c55e" font-weight="600" text-anchor="middle">Audit Logs</text>

    <rect x="180" y="-18" width="155" height="36" rx="18" fill="#3b82f6" opacity="0.15"/>
    <text x="257" y="6" font-family="-apple-system, BlinkMacSystemFont, 'Segoe UI', Helvetica, Arial, sans-serif" font-size="15" fill="#3b82f6" font-weight="600" text-anchor="middle">PII Detection</text>
  </g>

  <!-- Accent line at bottom -->
  <rect x="0" y="630" width="1280" height="10" fill="url(#accent)"/>
</svg>
