<svg xmlns="http://www.w3.org/2000/svg" width="1280" height="640" viewBox="0 0 1280 640">
  <defs>
    <linearGradient id="bg" x1="0%" y1="0%" x2="100%" y2="100%">
      <stop offset="0%" style="stop-color:#0a0a0a"/>
      <stop offset="100%" style="stop-color:#1a1a2e"/>
    </linearGradient>
    <linearGradient id="accent" x1="0%" y1="0%" x2="100%" y2="0%">
      <stop offset="0%" style="stop-color:#10a37f"/>
      <stop offset="100%" style="stop-color:#0d8c6d"/>
    </linearGradient>
  </defs>

  <!-- Background -->
  <rect width="1280" height="640" fill="url(#bg)"/>

  <!-- Subtle grid pattern -->
  <g opacity="0.05">
    <line x1="0" y1="80" x2="1280" y2="80" stroke="#fff" stroke-width="1"/>
    <line x1="0" y1="160" x2="1280" y2="160" stroke="#fff" stroke-width="1"/>
    <line x1="0" y1="240" x2="1280" y2="240" stroke="#fff" stroke-width="1"/>
    <line x1="0" y1="320" x2="1280" y2="320" stroke="#fff" stroke-width="1"/>
    <line x1="0" y1="400" x2="1280" y2="400" stroke="#fff" stroke-width="1"/>
    <line x1="0" y1="480" x2="1280" y2="480" stroke="#fff" stroke-width="1"/>
    <line x1="0" y1="560" x2="1280" y2="560" stroke="#fff" stroke-width="1"/>
    <line x1="160" y1="0" x2="160" y2="640" stroke="#fff" stroke-width="1"/>
    <line x1="320" y1="0" x2="320" y2="640" stroke="#fff" stroke-width="1"/>
    <line x1="480" y1="0" x2="480" y2="640" stroke="#fff" stroke-width="1"/>
    <line x1="640" y1="0" x2="640" y2="640" stroke="#fff" stroke-width="1"/>
    <line x1="800" y1="0" x2="800" y2="640" stroke="#fff" stroke-width="1"/>
    <line x1="960" y1="0" x2="960" y2="640" stroke="#fff" stroke-width="1"/>
    <line x1="1120" y1="0" x2="1120" y2="640" stroke="#fff" stroke-width="1"/>
  </g>

  <!-- Logo: green rounded square with lightning bolt (matches favicon) -->
  <g transform="translate(576, 100)">
    <!-- Outer glow -->
    <rect x="-8" y="-8" width="144" height="144" rx="36" fill="#10a37f" opacity="0.15"/>
    <!-- Main icon background -->
    <rect width="128" height="128" rx="32" fill="#10a37f"/>
    <!-- Lightning bolt -->
    <path d="M70 24 L44 72 h20 L58 104 L84 56 H64 L70 24z" fill="white"/>
  </g>

  <!-- Title -->
  <text x="640" y="310" text-anchor="middle" font-family="-apple-system, BlinkMacSystemFont, 'Segoe UI', Helvetica, Arial, sans-serif" font-size="72" font-weight="800" fill="#ffffff" letter-spacing="-2">
    Thundergate
  </text>

  <!-- Subtitle -->
  <text x="640" y="365" text-anchor="middle" font-family="-apple-system, BlinkMacSystemFont, 'Segoe UI', Helvetica, Arial, sans-serif" font-size="26" fill="#a1a1aa" font-weight="400">
    Real-time execution firewall for autonomous AI agents
  </text>

  <!-- Tags -->
  <g transform="translate(640, 430)" text-anchor="middle">
    <rect x="-340" y="-18" width="130" height="36" rx="18" fill="#10a37f" opacity="0.15"/>
    <text x="-275" y="6" font-family="-apple-system, BlinkMacSystemFont, 'Segoe UI', Helvetica, Arial, sans-serif" font-size="15" fill="#10a37f" font-weight="600" text-anchor="middle">Rule Engine</text>

    <rect x="-180" y="-18" width="170" height="36" rx="18" fill="#ef4444" opacity="0.15"/>
    <text x="-95" y="6" font-family="-apple-system, BlinkMacSystemFont, 'Segoe UI', Helvetica, Arial, sans-serif" font-size="15" fill="#ef4444" font-weight="600" text-anchor="middle">Human-in-the-Loop</text>

    <rect x="20" y="-18" width="130" height="36" rx="18" fill="#22c55e" opacity="0.15"/>
    <text x="85" y="6" font-family="-apple-system, BlinkMacSystemFont, 'Segoe UI', Helvetica, Arial, sans-serif" font-size="15" fill="#22c55e" font-weight="600" text-anchor="middle">Audit Logs</text>

    <rect x="180" y="-18" width="155" height="36" rx="18" fill="#3b82f6" opacity="0.15"/>
    <text x="257" y="6" font-family="-apple-system, BlinkMacSystemFont, 'Segoe UI', Helvetica, Arial, sans-serif" font-size="15" fill="#3b82f6" font-weight="600" text-anchor="middle">PII Detection</text>
  </g>

  <!-- Accent line at bottom (green to match brand) -->
  <rect x="0" y="632" width="1280" height="8" fill="url(#accent)"/>
</svg>
